<svg id="&#x421;&#x43B;&#x43E;&#x439;_1" viewBox="0 0 128 128" xmlns="http://www.w3.org/2000/svg"><path d="m98.956 27.94s-6.449-10.479 6.851-2.821c0 0 4.837-6.83 12.091.01 0 0 .806.8 9.27-1.824 0 0 3.161 3.718-2.84 7.226a3.165 3.165 0 0 1 -1.6.432h-2.214s.605 2.619-.2 4.231a8.806 8.806 0 0 0 -.2 8.867l2.217 4.031s2.216 2.418-1.814 3.224a15.081 15.081 0 0 1 -3.291 1.075c-2.255.53-1.76.8-7.561-1.262a.411.411 0 0 0 -.418.087 23.643 23.643 0 0 0 -6.531 13.131c-1.476 8.867-5.323 11.153-5.323 11.153a12.506 12.506 0 0 1 -4.941 1.553.59.59 0 0 0 -.51.549c-.123 2.06-.651 10-1.584 11.87-1.075 2.149.671 7.389.671 7.389l.2 1.409a2.108 2.108 0 0 0 .315.846c.558.863 1.844 3 1.633 4.059a9.593 9.593 0 0 1 -4.985.489 1.578 1.578 0 0 1 -1.2-1.533v-.065a.256.256 0 0 0 -.234-.254l-.943-.078a.383.383 0 0 1 -.345-.458 36.809 36.809 0 0 0 .447-11.938c-.933-6.048-2.817-13.038-2.817-13.038s-.537-2.015-1.344 1.478-3.756 11.422-4.43 11.822c-.563.338-.182 8.033-.044 10.519a1.994 1.994 0 0 0 .555 1.274c.932.973 2.752 3.111 2.042 4.329h-5.4a1.233 1.233 0 0 1 -1.061-.605l-.009-.015a1.872 1.872 0 0 0 -1.208-.877.637.637 0 0 1 -.5-.642l.521-17.072a58.543 58.543 0 0 1 -.537-12.091s-1.344-4.836-10.211.4c-8.494 5.02-13.412 3.258-17.945 1.211a1.006 1.006 0 0 0 -1.083.168l-4.751 4.264v3.077a1.013 1.013 0 0 1 -.588.942.738.738 0 0 1 -.832-.167 1.429 1.429 0 0 1 -.461-1.072v-.82a1.612 1.612 0 0 0 -.4-1.07c-.445-.5-1.228-.953-2.172.35a1.3 1.3 0 0 0 -.249.767v1.563a1.4 1.4 0 0 1 -.848 1.3l-.03.012a1.239 1.239 0 0 1 -1.674-1.168v-2.292a.423.423 0 0 0 -.331-.414c-1.114-.251-4.737-1.11-5.982-1.933a.462.462 0 0 0 -.679.217c-.784 1.926-2.811 7.871-.063 12.3a2.7 2.7 0 0 1 .4 1.131 25.267 25.267 0 0 0 2.627 8.909c.711 1.219 1.109 1.936 1.332 2.357a.686.686 0 0 1 -.351.956 11.9 11.9 0 0 1 -5.46.4.835.835 0 0 1 -.76-.83v-1.4a1.3 1.3 0 0 1 -.941-1.247v-2.3a1.59 1.59 0 0 0 -.145-.665c-.8-1.744-4.649-10.212-4.288-11.777l-.024 8.733v2.247a3.559 3.559 0 0 0 .633 2.025l2.128 3.07a.432.432 0 0 1 -.088.588c-.664.513-2.414 1.49-5.3.519a2 2 0 0 1 -1.264-1.3l-.387-1.238a2.006 2.006 0 0 1 -1.478-1.935v-18.889s-1.403-2.609-1.02-4.069a7.877 7.877 0 0 1 .832-2.483 2.726 2.726 0 0 0 .554-1.261l.532-3.8a10.473 10.473 0 0 0 -.314-4.373l-5.421-18.675a15.483 15.483 0 0 1 -.164-6.787 1.574 1.574 0 0 0 -.319-1.416c-.352-.4-.78-.4-.857 1.755-.134 3.761-.806 15.852 0 21.092a138.312 138.312 0 0 1 .8 15.224 7.959 7.959 0 0 0 .256 1.962 15.8 15.8 0 0 1 -1.45 11.161l-1.625 2.687v-6.944a8.536 8.536 0 0 0 -.224-1.943 14.867 14.867 0 0 1 .223-7.907l.419-2.408a6.262 6.262 0 0 0 .085-1.374c-.152-3.15-.793-16.029-1.16-18.385-.418-2.686-2.4-7.389 0-18.942s13.285-9.942 13.285-9.942 9.27-.269 12.9 1.075c3.416 1.265 28.164 1.1 31.031 1.077a3.241 3.241 0 0 0 .52-.045 113.934 113.934 0 0 1 40.053 1.252z"/></svg>