<?xml version="1.0" encoding="iso-8859-1"?>
<!-- Generator: Adobe Illustrator 19.0.0, SVG Export Plug-In . SVG Version: 6.00 Build 0)  -->
<svg version="1.1" id="Capa_1" xmlns="http://www.w3.org/2000/svg" xmlns:xlink="http://www.w3.org/1999/xlink" x="0px" y="0px"
	 viewBox="0 0 483.312 483.312" style="enable-background:new 0 0 483.312 483.312;" xml:space="preserve">
<g>
	<g>
		<path d="M481.656,203.312v-48h-32V56l-56-56l-56,56v99.312h-40V56l-56-56l-56,56v99.312h-40V56l-56-56l-56,56v99.312h-32v48h32
			v152h-32v48h32v80h112v-80h40v80h112v-80h40v80h112v-80h32v-48h-32v-152H481.656z M449.656,171.312h16v16h-16V171.312z
			 M33.656,387.312h-16v-16h16V387.312z M33.656,187.312h-16v-16h16V187.312z M129.656,467.312h-80V62.624l40-40l40,40V467.312z
			 M185.656,387.312h-40v-16h40V387.312z M185.656,355.312h-40v-152h40V355.312z M185.656,187.312h-40v-16h40V187.312z
			 M281.656,467.312h-80V62.624l40-40l40,40V467.312z M337.656,387.312h-40v-16h40V387.312z M337.656,355.312h-40v-152h40V355.312z
			 M337.656,187.312h-40v-16h40V187.312z M433.656,355.312v112h-80V62.624l40-40l40,40V355.312z M465.656,371.312v16h-16v-16
			H465.656z"/>
	</g>
</g>
<g>
</g>
<g>
</g>
<g>
</g>
<g>
</g>
<g>
</g>
<g>
</g>
<g>
</g>
<g>
</g>
<g>
</g>
<g>
</g>
<g>
</g>
<g>
</g>
<g>
</g>
<g>
</g>
<g>
</g>
</svg>
